<?xml version="1.0" encoding="UTF-8"?>
<svg version="1.1" xmlns="http://www.w3.org/2000/svg" width="1024" height="1024">
<path d="M0 0 C337.92 0 675.84 0 1024 0 C1024 337.92 1024 675.84 1024 1024 C686.08 1024 348.16 1024 0 1024 C0 686.08 0 348.16 0 0 Z " fill="#0B0C0C" transform="translate(0,0)"/>
<path d="M0 0 C1.24064209 0.24943359 1.24064209 0.24943359 2.50634766 0.50390625 C31.90643625 6.52326088 60.33503677 17.16268927 84 36 C84.96679688 36.75925781 85.93359375 37.51851563 86.9296875 38.30078125 C93.16253179 43.29914253 99.17397037 48.53391186 105 54 C105.52464844 54.49064941 106.04929687 54.98129883 106.58984375 55.48681641 C113.51915683 62.02205481 119.86172162 68.78326376 125.625 76.375 C126.16842041 77.08470947 126.71184082 77.79441895 127.27172852 78.52563477 C129.90546715 82.01949876 132.35900638 85.5271967 134.6015625 89.28515625 C142.43467792 101.87650071 152.54986826 105.2579348 166.21972656 109.984375 C190.40780532 118.82020286 206.39832478 142.20574995 219.125 163.375 C223.60226653 170.78580507 228.90187536 176.88308299 235 183 C235.66128906 183.66386719 236.32257813 184.32773437 237.00390625 185.01171875 C238.13471112 186.13746409 239.26986929 187.25886029 240.41015625 188.375 C242.09676714 190.09890695 243.63568024 191.90419041 245.1875 193.75 C248.98463835 198.1435915 253.23634082 201.98102665 257.54296875 205.86328125 C262.16973561 210.03806211 266.68879815 214.32806648 271.21655273 218.60961914 C275.13549186 222.30081127 279.12323501 225.89329443 283.1875 229.42382812 C286.30430874 232.13424263 289.36220959 234.90868368 292.41796875 237.6875 C294.12463039 239.21600785 295.85646075 240.71691782 297.61328125 242.1875 C306.42253586 249.67336128 314.61717392 260.10769574 316 272 C316.47832586 281.28251121 316.47832586 281.28251121 314 285 C310.42461423 284.39655936 310.05901011 284.07453909 307.625 281 C302.5654147 274.81035504 294.69552678 269.18851862 286.8671875 267.20703125 C284.53805607 266.97809953 282.3342207 266.86554028 280 267 C279.41036322 269.24224658 279.41036322 269.24224658 280 272 C284.20917263 277.04885624 290.27892754 280.05317749 296 283.0625 C301.63807633 286.05654557 306.87800465 289.17893698 312 293 C311.2945121 301.93618005 306.83301335 308.92498243 300.16015625 314.625 C292.3883634 319.57196398 282.85533115 319.06303075 274.1640625 317.16015625 C263.69649123 314.21590582 253.82903246 309.58460658 244 305 C255.69050365 312.27753207 267.93555533 317.16626454 280.76367188 322.05273438 C281.66150391 322.40142578 282.55933594 322.75011719 283.484375 323.109375 C284.70979004 323.58068848 284.70979004 323.58068848 285.95996094 324.06152344 C288 325 288 325 290 327 C290.5 329.3125 290.5 329.3125 290 332 C284.42244659 337.99586991 278.23947679 339.05123678 270.3125 339.375 C255.91883631 339.03315049 244.04312296 331.59429458 231.82519531 324.78857422 C218.38779423 317.33515812 205.3188402 311.37821892 189.734375 310.5 C188.6812764 310.43983955 188.6812764 310.43983955 187.60690308 310.37846375 C186.10255228 310.29329524 184.5981022 310.20986568 183.09356689 310.12802124 C180.72404083 309.99858194 178.35495233 309.86261312 175.98583984 309.72583008 C168.94675037 309.32685062 161.91709127 308.96570541 154.8671875 308.82421875 C132.66724072 308.37136629 111.20466649 305.3503204 94.8203125 289.0390625 C82.91276713 276.55026746 74.65376369 259.03233788 72 242 C71.11254316 257.77701058 74.66645263 271.02374669 82 285 C82.76957031 286.51013672 82.76957031 286.51013672 83.5546875 288.05078125 C93.28526977 305.99881697 107.74058315 316.07330536 127 322 C131.29324365 323.18470717 135.62918772 324.14679349 140 325 C137.55386302 326.97606083 135.10275118 328.92434077 132.5703125 330.7890625 C119.28650519 340.76252805 113.34321248 353.91881362 111.01586914 370.05200195 C110.28372715 375.72982728 109.78922073 381.41710267 109.36328125 387.125 C106.60852939 423.86897008 99.54882769 460.76309583 77 491 C76.23042969 492.051875 75.46085937 493.10375 74.66796875 494.1875 C66.88192564 504.67074012 58.0007239 514.06139373 48.8125 523.3125 C48.2546582 523.87509521 47.69681641 524.43769043 47.12207031 525.01733398 C23.19705119 548.84763529 -26.31267135 581 -61 581 C-60.96970703 579.9076001 -60.93941406 578.8152002 -60.90820312 577.68969727 C-60.79404143 573.55027337 -60.68298142 569.4107706 -60.57275391 565.27124023 C-60.52506819 563.49582748 -60.47659405 561.72043569 -60.42724609 559.94506836 C-59.20840755 516.00469498 -58.91686357 472.96497992 -91 439 C-103.15185712 426.17417434 -119.76980579 418.42034202 -136 412 C-136.66 412 -137.32 412 -138 412 C-124.52305321 424.57641348 -108.98997253 438.52441209 -92 446 C-93.6640625 449.8515625 -93.6640625 449.8515625 -96.6875 451.1875 C-117.00112945 456.17008835 -138.11897803 452.75263006 -156.25 442.6875 C-174.95104543 431.23587428 -184.90505426 412.39791389 -193.5 392.875 C-193.94593506 391.86655029 -194.39187012 390.85810059 -194.85131836 389.8190918 C-195.46632202 388.38883667 -195.46632202 388.38883667 -196.09375 386.9296875 C-196.64579102 385.64940674 -196.64579102 385.64940674 -197.20898438 384.34326172 C-198 382 -198 382 -198 378 C-187.26555917 375.01821088 -176.56913026 374.78887469 -165.48828125 374.75976562 C-163.26784523 374.75007786 -161.04834454 374.71896458 -158.828125 374.6875 C-135.64062666 374.51538023 -114.84420985 382.3562535 -98.16796875 398.70703125 C-76.78107551 420.51059455 -66.04160926 450.49710996 -54 478 C-54.0611499 476.8550708 -54.0611499 476.8550708 -54.12353516 475.68701172 C-55.17803617 454.93604938 -54.49491061 435.2940349 -51.125 414.75 C-50.97587158 413.8213916 -50.82674316 412.8927832 -50.6730957 411.93603516 C-49.38962372 404.67854873 -47.87536635 397.04565031 -42.69140625 391.5546875 C-39.52239704 389.72411324 -36.36829475 388.40207817 -32.9375 387.125 C-13.22208192 379.50154433 3.0470252 368.2110347 13 349 C14.37370267 345.89083415 15.61450665 342.74312997 16.8125 339.5625 C17.10261963 338.80018066 17.39273926 338.03786133 17.69165039 337.25244141 C22.53367164 323.73590553 22.40149292 309.92640196 22.625 295.75 C22.66325739 293.73305748 22.70231338 291.71612995 22.7421875 289.69921875 C22.83733415 284.79960336 22.92166764 279.89991187 23 275 C-2.12691804 276.45274681 -23.17936169 281.08746391 -41.125 300.1875 C-57.38302776 319.27587268 -62.20125651 342.32302719 -62.1875 366.75 C-62.18808914 367.75663193 -62.18808914 367.75663193 -62.18869019 368.78359985 C-62.17969434 381.9326602 -61.6713525 395.05413419 -61.0625 408.1875 C-61.01902435 409.12839478 -60.97554871 410.06928955 -60.93075562 411.03869629 C-60.4455353 421.37335859 -59.88541856 431.69077262 -59 442 C-62.01425959 438.98574041 -62.26681899 435.17716101 -63.13671875 431.12890625 C-63.33675507 430.22816376 -63.53679138 429.32742126 -63.7428894 428.39938354 C-64.17272149 426.46292993 -64.59955425 424.52580864 -65.02371216 422.58810425 C-66.13434962 417.52571955 -67.27468004 412.4700419 -68.4140625 407.4140625 C-68.75072685 405.91790657 -68.75072685 405.91790657 -69.0941925 404.39152527 C-78.10797915 363.77478982 -78.10797915 363.77478982 -95 326 C-95.51747803 325.10716309 -95.51747803 325.10716309 -96.04541016 324.19628906 C-101.12007118 315.57841478 -107.1057102 308.01917686 -113.6875 300.51416016 C-115.67743883 298.21847552 -117.58729024 295.86014722 -119.5 293.5 C-124.57933722 287.25914465 -129.78688808 281.12906056 -135 275 C-126.33582387 294.33708584 -116.58136026 313.30245639 -101 328 C-99.66316559 329.32982304 -98.32891592 330.66226384 -97 332 C-101.49071879 335.74057615 -105.23608666 336.23707613 -111 336 C-130.69912561 332.58149664 -148.45833491 320.54362207 -160.4375 304.625 C-170.66299657 289.47099833 -177.17993428 271.60400561 -177.1328125 253.26953125 C-177.13424759 252.02292976 -177.13424759 252.02292976 -177.13571167 250.75114441 C-177.13638986 248.99710006 -177.13456081 247.24305315 -177.13037109 245.48901367 C-177.12505181 242.83831973 -177.13031076 240.18779786 -177.13671875 237.53710938 C-177.13974102 228.97714219 -177.06681328 220.50899022 -176 212 C-171.03899942 212.89939743 -166.66139404 214.55937209 -162 216.4375 C-161.12786865 216.78876953 -160.2557373 217.14003906 -159.35717773 217.50195312 C-130.26973758 229.39959082 -101.41397166 243.58373131 -87 273 C-81.4700193 286.19318837 -80.53069976 300.37680862 -79.3203125 314.49023438 C-78.5189394 322.73618144 -76.7102799 330.17777085 -74 338 C-73.505 339.485 -73.505 339.485 -73 341 C-72.96261719 339.93265625 -72.92523438 338.8653125 -72.88671875 337.765625 C-71.34247279 300.14762223 -58.89789566 268.55784016 -37 238 C-36.49436523 237.29230469 -35.98873047 236.58460938 -35.46777344 235.85546875 C-29.78360433 227.95898494 -23.87408155 220.46436421 -17.21484375 213.36328125 C-15.32697126 211.34888468 -13.53013714 209.29614125 -11.75 207.1875 C-1.43787598 195.40221541 9.94723305 184.70184463 23 176 C22.23034912 175.93530518 21.46069824 175.87061035 20.66772461 175.80395508 C-3.74701821 173.67736253 -25.71973289 169.75820008 -43.88671875 152.04296875 C-45.9690946 149.94564082 -45.9690946 149.94564082 -48.40625 148.19140625 C-62.47400686 136.30584661 -71.69612665 116.84526331 -75 99 C-75.02290113 97.33349068 -75.02689249 95.66644969 -75 94 C-62.38958768 93.78839618 -49.85466349 94.33837182 -37.2668457 95.06201172 C-33.96816497 95.24826853 -30.66885976 95.41533655 -27.36914062 95.58203125 C7.0635284 97.45871386 39.07753475 104.44636753 66 127 C66.81597656 127.67546875 67.63195312 128.3509375 68.47265625 129.046875 C71.75439593 131.83426914 74.48824014 134.48353619 77 138 C79.7290433 122.61811959 70.97008166 108.43547036 62.45288086 96.11523438 C35.4591579 58.62201745 -5.66678796 32.19283635 -51.17407227 24.46069336 C-55.67275927 23.9189907 -60.07137698 23.8378846 -64.59765625 23.83203125 C-65.50897812 23.82870285 -66.42029999 23.82537445 -67.35923767 23.82194519 C-69.2830251 23.81690133 -71.2068212 23.81453608 -73.13061523 23.81469727 C-76.0292867 23.81252489 -78.92756829 23.79438088 -81.82617188 23.77539062 C-91.08529089 23.74814037 -99.99603837 23.9428676 -109.13500977 25.55688477 C-113.42795178 26.22085492 -117.66925781 26.17961604 -122 26 C-122 25.34 -122 24.68 -122 24 C-113.27069157 16.79533105 -103.24904328 11.66131812 -93 7 C-91.96617187 6.52691406 -90.93234375 6.05382812 -89.8671875 5.56640625 C-86.61499835 4.20354369 -83.35983443 3.07198144 -80 2 C-79.30422852 1.77151367 -78.60845703 1.54302734 -77.89160156 1.30761719 C-53.72288995 -6.30887658 -24.61832116 -5.18817969 0 0 Z " fill="#FB8542" transform="translate(455,223)"/>
<path d="M0 0 C5.00230198 2.45567552 8.49851535 5.9970307 11 11 C11.10244288 13.27473925 11.13845062 15.55255519 11.14526367 17.82958984 C11.14862228 18.53237061 11.1519809 19.23515137 11.15544128 19.95922852 C11.16497177 22.29314934 11.16689634 24.6269984 11.16796875 26.9609375 C11.17118309 28.58843007 11.1745473 30.21592234 11.17805481 31.84341431 C11.18405356 35.26491972 11.18589427 38.68639986 11.18530273 42.10791016 C11.1852018 46.46295564 11.1987787 50.81783555 11.21607494 55.17284203 C11.22728043 58.54119589 11.22921923 61.90951104 11.22869301 65.27788162 C11.22986319 66.88121733 11.23423007 68.48455437 11.24202538 70.08787155 C11.3355634 91.33921442 7.53106166 107.76736407 -7.3125 123.75 C-25.1288924 140.48539781 -47.10922089 140.25393936 -70.04077148 140.35009766 C-72.88354713 140.36343028 -75.72560387 140.39128823 -78.56811523 140.43212891 C-82.02574491 140.48177596 -85.48272407 140.50625563 -88.94069481 140.51332474 C-90.8760064 140.52318393 -92.81114613 140.55733857 -94.74617004 140.59213257 C-102.57837794 140.57349849 -108.46466065 139.48575812 -115 135 C-118.42674971 131.49166101 -119.25680015 128.77100882 -119.5 124 C-119.28787581 119.29084307 -118.22389163 116.56324865 -115 113 C-110.12384575 109.31800597 -106.65815131 107.87981811 -100.6015625 107.8581543 C-99.49611084 107.85111984 -98.39065918 107.84408539 -97.25170898 107.83683777 C-96.05489502 107.83267349 -94.85808105 107.82850922 -93.625 107.82421875 C-91.08723141 107.8010072 -88.54947098 107.77688934 -86.01171875 107.75195312 C-82.01369821 107.7169429 -78.01622137 107.6875547 -74.01806641 107.67407227 C-70.15750995 107.65850744 -66.29782383 107.61822687 -62.4375 107.57421875 C-61.25687988 107.57612717 -60.07625977 107.57803558 -58.85986328 107.58000183 C-48.26774935 107.42551463 -38.25703912 105.02586772 -30.4140625 97.47265625 C-26.53681755 93.30225376 -24.68845754 89.42083737 -23 84 C-22.81277878 83.40286697 -22.62555756 82.80573395 -22.43266296 82.19050598 C-21.8323515 79.15122147 -21.88347018 76.23698727 -21.88989258 73.1394043 C-21.88935007 71.72669981 -21.88876309 70.31399534 -21.88813782 68.90129089 C-21.88956598 68.15576651 -21.89099415 67.41024212 -21.89246559 66.64212608 C-21.89599772 62.67866683 -21.87017117 58.71534734 -21.84960938 54.75195312 C-21.8252939 49.71545529 -21.80956606 44.67937059 -21.82495117 39.64282227 C-21.83663826 35.56592446 -21.81915111 31.49004758 -21.78250694 27.4133091 C-21.77391509 25.86448167 -21.77593594 24.31555594 -21.789011 22.76675987 C-21.89541781 9.14379137 -21.89541781 9.14379137 -18.2019043 4.62036133 C-12.85685548 -0.49024661 -7.10909302 -0.83575694 0 0 Z " fill="#FA8542" transform="translate(843,691)"/>
<path d="M0 0 C5.30842081 2.01719991 9.53003226 5.0763186 12.12466431 10.2368927 C13.17660187 13.55746604 13.2517231 16.35066308 13.25537109 19.8347168 C13.25899155 20.50213394 13.262612 21.16955109 13.26634216 21.85719299 C13.27321139 23.30035223 13.27574625 24.74353731 13.27439499 26.18671227 C13.27342474 28.47937221 13.2864324 30.77156965 13.30337524 33.06416321 C13.34948251 39.58041775 13.37422401 46.09662494 13.38085938 52.61303711 C13.38590506 56.6066332 13.41031093 60.59974748 13.44618607 64.5931797 C13.4559163 66.10602727 13.45835342 67.6189417 13.45301437 69.13181114 C13.41357598 80.86166942 14.65139592 90.39050776 22.9296875 99.2421875 C28.87905853 104.29354026 35.99287921 107.10925678 43.73730469 107.15771484 C45.50494171 107.17310806 45.50494171 107.17310806 47.30828857 107.18881226 C48.58327209 107.19611359 49.85825562 107.20341492 51.171875 107.2109375 C53.17501818 107.23181993 55.17816136 107.25271982 57.18129349 107.27463722 C62.12144493 107.3277419 67.06160293 107.37194511 72.00195312 107.40136719 C74.77237807 107.41830826 77.54252721 107.44304448 80.31280518 107.47622681 C82.92039819 107.50712643 85.5281578 107.52659895 88.13592529 107.53329468 C101.27314745 107.71602454 101.27314745 107.71602454 106.7421875 112.53515625 C110.57879718 117.70796447 111.52719787 120.6754029 111.4765625 127.09765625 C110.67588828 131.97389353 107.91709764 135.11638015 104 138 C99.80392952 139.65086783 96.26968558 140.25821071 91.77368164 140.29052734 C90.56124283 140.30328705 89.34880402 140.31604675 88.09962463 140.32919312 C86.79960007 140.33141876 85.4995755 140.33364441 84.16015625 140.3359375 C82.79218919 140.3423783 81.42422346 140.34910758 80.05625916 140.35610962 C77.18908508 140.36806119 74.3220312 140.37179323 71.45483398 140.37060547 C67.82410765 140.37040373 64.19417689 140.39756281 60.56363773 140.43214989 C57.73472236 140.4546745 54.9059897 140.45843514 52.07699394 140.45738602 C50.10156795 140.46082199 48.126199 140.48233986 46.15089417 140.50448608 C27.66592931 140.41281779 11.59973368 134.20988804 -1.8203125 121.33984375 C-17.51508684 104.49186914 -19.11327258 84.36092521 -19.23828125 62.42578125 C-19.24235678 61.75080282 -19.2464323 61.07582439 -19.25063133 60.38039207 C-19.27129844 56.8179698 -19.28569085 53.255584 -19.29516602 49.69311523 C-19.30628617 46.03835844 -19.34080474 42.384201 -19.38033772 38.72965717 C-19.40656674 35.89248078 -19.41486256 33.05544757 -19.41844749 30.21816063 C-19.42561574 28.22187463 -19.45199927 26.22568696 -19.47883606 24.22956848 C-19.45922001 16.01456444 -18.80165682 10.20141867 -13.10546875 3.90625 C-8.64226596 0.63384062 -5.72309511 -0.95384919 0 0 Z " fill="#F98442" transform="translate(194,691)"/>
<path d="M0 0 C1.00589928 -0.01007584 1.00589928 -0.01007584 2.03211975 -0.02035522 C4.24821418 -0.03933879 6.46400507 -0.0432613 8.68017578 -0.04541016 C10.2327588 -0.05184411 11.78534062 -0.05857291 13.33792114 -0.06558228 C16.59786785 -0.0775604 19.85770863 -0.08126318 23.11767578 -0.08007812 C27.2574531 -0.07987634 31.39653303 -0.10702889 35.53614616 -0.14162254 C38.74847403 -0.16408585 41.96064019 -0.16790959 45.17303848 -0.16685867 C46.69658913 -0.16919131 48.22014589 -0.17788001 49.74361801 -0.19352341 C67.83717904 -0.36172476 83.50755131 4.08543727 96.89892578 16.81787109 C111.48529115 32.15536159 114.56687984 49.45529101 114.58642578 69.80615234 C114.59286544 71.39174516 114.59959464 72.97733682 114.6065979 74.56292725 C114.61850374 77.86766315 114.6222851 81.17229498 114.62109375 84.47705078 C114.62088962 88.70262768 114.64831817 92.92753919 114.68263817 97.15295792 C114.70490067 100.4198512 114.70893169 103.68658324 114.7078743 106.95354462 C114.71022636 108.51161771 114.71902761 110.06969552 114.73453903 111.62769318 C114.75421061 113.805168 114.7483608 115.98119154 114.73632812 118.15869141 C114.73917816 119.39427795 114.7420282 120.6298645 114.7449646 121.90289307 C113.98782123 127.09004712 111.51325368 130.15095857 107.68798828 133.60302734 C103.09402324 136.78346468 98.65098287 136.79074468 93.25048828 136.29052734 C88.30669157 134.5792131 85.00082979 131.72178471 82.25048828 127.29052734 C81.63143921 123.94085693 81.63143921 123.94085693 81.63867188 120.25048828 C81.63300705 119.57317154 81.62734222 118.8958548 81.62150574 118.19801331 C81.60807276 115.97306849 81.62890578 113.74977451 81.64892578 111.52490234 C81.64341906 109.96558527 81.63528855 108.40627547 81.62466431 106.84698486 C81.60181446 102.7473293 81.60597903 98.6482075 81.61846924 94.54852295 C81.63678961 88.00241562 81.62657857 81.4566247 81.59260941 74.91059113 C81.58656143 72.63836691 81.5996974 70.36683526 81.61459351 68.09466553 C81.62320013 57.5755826 80.96926748 47.18341434 73.25048828 39.29052734 C63.53053474 30.82798052 51.73967285 29.85094866 39.32861328 29.91943359 C36.89762218 29.90206642 34.46663263 29.8844819 32.03564453 29.86669922 C28.2548552 29.85660595 24.47416168 29.85303916 20.69335938 29.85473633 C17.00899373 29.85116205 13.32534999 29.82382392 9.64111328 29.79443359 C8.51699036 29.80261612 7.39286743 29.81079865 6.23468018 29.81922913 C-2.12556567 29.74021301 -7.44403416 28.18282021 -13.74951172 22.66552734 C-16.45878793 18.09362373 -16.7828295 14.48171904 -15.74951172 9.29052734 C-12.33328126 1.96042656 -7.91671959 0.04987107 0 0 Z " fill="#FB8643" transform="translate(739.74951171875,194.70947265625)"/>
<path d="M0 0 C0.68374191 -0.00511093 1.36748383 -0.01022186 2.07194519 -0.01548767 C4.31563242 -0.02930486 6.55900985 -0.02843322 8.80273438 -0.02612305 C10.37162387 -0.03001371 11.94051232 -0.03434914 13.50939941 -0.03910828 C16.79096905 -0.04655309 20.07243106 -0.04629143 23.35400391 -0.04101562 C27.55044637 -0.03521676 31.74644808 -0.0521702 35.94281769 -0.0753603 C39.18054766 -0.09011941 42.41817192 -0.0909665 45.65592957 -0.08785057 C47.20282363 -0.08836247 48.74972382 -0.09357559 50.29658508 -0.10366249 C52.46233492 -0.1160553 54.62723168 -0.10921965 56.79296875 -0.09765625 C58.02285522 -0.09828568 59.2527417 -0.0989151 60.51989746 -0.0995636 C65.41915799 0.44341372 68.69373783 2.10441832 72.20898438 5.5246582 C74.31708684 8.96008444 74.82696397 11.2424746 74.89648438 15.2746582 C73.16962386 21.16629997 70.77439931 23.86011775 65.89648438 27.2746582 C62.19976603 29.04600191 59.27945621 29.5247991 55.19506836 29.5300293 C54.0729747 29.53698822 52.95088104 29.54394714 51.79478455 29.55111694 C50.58955643 29.55011993 49.38432831 29.54912292 48.14257812 29.5480957 C45.57030824 29.56839599 42.99804265 29.58924698 40.42578125 29.6105957 C36.38631435 29.63523155 32.34691073 29.65048396 28.30737305 29.65551758 C24.39796385 29.6651024 20.48931495 29.69896474 16.58007812 29.7355957 C15.38901962 29.73055023 14.19796112 29.72550476 12.97080994 29.7203064 C1.65261926 29.85150841 -7.9674287 32.06642887 -16.25976562 40.1184082 C-21.80228919 46.60034254 -23.22274845 53.05830894 -23.24536133 61.42651367 C-23.24883575 62.13922424 -23.25231018 62.85193481 -23.25588989 63.58624268 C-23.26322772 65.13038228 -23.26858359 66.6745323 -23.27218056 68.21868515 C-23.27936634 70.66549915 -23.29504813 73.11211498 -23.31352234 75.55886841 C-23.36589595 82.51439722 -23.41396614 89.46981528 -23.42944336 96.42553711 C-23.4395386 100.68381863 -23.46889863 104.94159759 -23.51076317 109.19968033 C-23.52305298 110.81909505 -23.52819811 112.4385808 -23.52596474 114.05804062 C-23.52360506 116.32724197 -23.54582485 118.59500689 -23.57348633 120.86401367 C-23.57935257 122.15322723 -23.58521881 123.4424408 -23.59126282 124.77072144 C-24.315192 129.7225773 -26.50255668 132.81924098 -30.16601562 136.1496582 C-35.32017898 138.12359311 -41.12205457 138.58241098 -46.26757812 136.32543945 C-49.94993289 133.84180869 -52.11892173 131.286799 -54.10351562 127.2746582 C-54.39315443 124.52660645 -54.52424845 122.00755772 -54.50756836 119.26245117 C-54.51443161 118.4698439 -54.52129486 117.67723663 -54.52836609 116.86061096 C-54.54663275 114.24583902 -54.54279444 111.63166767 -54.53710938 109.0168457 C-54.54167359 107.18946133 -54.54697987 105.36207867 -54.55299377 103.53469849 C-54.56192639 99.70315587 -54.5595028 95.87182162 -54.54956055 92.0402832 C-54.53811293 87.15478489 -54.55821664 82.27001391 -54.58747768 77.38461113 C-54.60592603 73.60793558 -54.6055294 69.83143119 -54.59984016 66.05472183 C-54.59968778 64.25517894 -54.60566323 62.45562382 -54.61813164 60.65612411 C-54.71836269 43.80816765 -51.39609361 30.65579786 -39.41601562 18.0871582 C-31.69356666 10.71204577 -23.16348996 5.74872463 -13.10351562 2.2746582 C-11.76444153 1.76265617 -11.76444153 1.76265617 -10.39831543 1.24031067 C-6.77637912 0.17877979 -3.77085806 0.01412636 0 0 Z " fill="#FB8643" transform="translate(231.103515625,194.725341796875)"/>
<path d="M0 0 C0.61646847 25.75468254 -3.31111715 50.09133577 -21 70 C-21.55429687 70.63679687 -22.10859375 71.27359375 -22.6796875 71.9296875 C-27.4192694 77.0321082 -33.00568532 80.52410209 -39 84 C-39.84691406 84.515625 -40.69382812 85.03125 -41.56640625 85.5625 C-49.30192006 89.88628065 -57.3903452 91.86150112 -65.99121094 93.82055664 C-73.25193653 95.46983411 -73.25193653 95.46983411 -79 100 C-80.37046858 102.47881011 -81.49831471 104.77497007 -82.5625 107.375 C-82.85842041 108.07238281 -83.15434082 108.76976562 -83.45922852 109.48828125 C-86.21909634 116.16935115 -88.23647238 122.98970385 -90 130 C-90.33 130 -90.66 130 -91 130 C-97.02618654 98.36252067 -94.20826068 63.39628963 -75.80859375 36.24169922 C-63.52924623 18.86003872 -45.34908297 5.35571053 -23.97851562 1.64941406 C-16.01520666 0.44814498 -8.05909226 -0.2930579 0 0 Z " fill="#0C0C0C" transform="translate(500,623)"/>
<path d="M0 0 C5.56777572 7.07924947 7.31177484 14.11441717 7 23 C-0.96152988 25.83076618 -8.57902525 26.51586604 -16.375 22.8125 C-23.229814 19.06124352 -29.84022165 14.85242356 -36.43896484 10.67114258 C-41.51190832 7.46600351 -46.58223626 4.58288736 -52 2 C-49.35010311 -0.64989689 -46.35848067 -1.42782533 -42.875 -2.5625 C-42.19066895 -2.78574951 -41.50633789 -3.00899902 -40.80126953 -3.23901367 C-28.09521668 -7.27524969 -10.8722723 -9.18102994 0 0 Z " fill="#0C0C0C" transform="translate(641,397)"/>
<path d="M0 0 C15.80782686 1.00367155 29.32406462 5.17670016 43 13 C43.8971875 13.50660156 44.794375 14.01320313 45.71875 14.53515625 C51.51597341 18.09886037 55.71991816 22.75194325 60 28 C59.505 29.485 59.505 29.485 59 31 C46.39779903 32.21956784 32.40788186 27.03075132 22 20 C21.14535156 19.43796875 20.29070312 18.8759375 19.41015625 18.296875 C12.15654742 13.29157971 5.91845749 7.51373755 0 1 C0 0.67 0 0.34 0 0 Z " fill="#0C0B0B" transform="translate(431,349)"/>
<path d="M0 0 C0.33 0.66 0.66 1.32 1 2 C-1.68545238 8.04061018 -5.10926921 13.51793148 -8.6875 19.0625 C-12.91472814 25.66847468 -17.05399222 32.30746177 -20.96948242 39.10375977 C-23.31792207 43.1076852 -25.96513123 46.51122043 -29 50 C-30 48 -30 48 -29.3203125 45.5234375 C-22.87472811 28.54585248 -13.51239528 12.33929344 0 0 Z " fill="#F58E47" transform="translate(432,553)"/>
<path d="M0 0 C0 4.4162973 -2.65971772 6.94425982 -5.25 10.3125 C-6.05993408 11.38056885 -6.05993408 11.38056885 -6.88623047 12.47021484 C-10.94029761 17.76083711 -15.21910078 22.81600601 -19.61572266 27.82250977 C-24.14217843 33.03159754 -28.11439981 38.56468334 -32.0390625 44.234375 C-34 47 -34 47 -36 49 C-32.91402001 29.82531536 -14.81907752 11.07563623 0 0 Z " fill="#F69049" transform="translate(455,663)"/>
<path d="M0 0 C2.47237054 2.47237054 2.66470415 4.11192327 3.4375 7.5 C4.75648313 13.07203079 6.29519869 18.53496317 8 24 C6.02 24.66 4.04 25.32 2 26 C-0.33447255 17.32910197 -0.19865739 8.89543642 0 0 Z " fill="#19100D" transform="translate(526,463)"/>
<path d="M0 0 C0.33 0 0.66 0 1 0 C1.08302368 1.39738403 1.08302368 1.39738403 1.16772461 2.82299805 C1.37744485 6.34372296 1.58818034 9.86438427 1.79956055 13.38500977 C1.89012441 14.89670493 1.98030604 16.40842305 2.07006836 17.92016602 C2.6265932 27.28781601 3.24085324 36.64604493 4 46 C1.1041665 43.1041665 0.75435178 39.62566156 -0.125 35.75 C-0.30675781 34.99847656 -0.48851562 34.24695313 -0.67578125 33.47265625 C-1.66033203 29.230945 -2.2095133 25.38581167 -2 21 C-1.67 21 -1.34 21 -1 21 C-0.67 14.07 -0.34 7.14 0 0 Z " fill="#F99B4C" transform="translate(392,619)"/>
<path d="M0 0 C0.33 0 0.66 0 1 0 C1 6.6 1 13.2 1 20 C6.445 18.515 6.445 18.515 12 17 C11 19 11 19 9.0390625 19.8515625 C8.24242187 20.10679687 7.44578125 20.36203125 6.625 20.625 C5.43777344 21.01558594 5.43777344 21.01558594 4.2265625 21.4140625 C2 22 2 22 -1 22 C-1.14715692 14.6094524 -0.70776992 7.35575165 0 0 Z " fill="#F8994C" transform="translate(395,782)"/>
<path d="M0 0 C3.69460595 3.35873268 4.87239277 5.7239277 5.375 10.75 C5.25594778 15.28248797 3.86841951 19.44988819 1 23 C-1.140625 23.72265625 -1.140625 23.72265625 -3 24 C-2.175 23.071875 -1.35 22.14375 -0.5 21.1875 C2.93942354 16.39374254 2.67459311 11.68707609 2 6 C1.14284151 2.49170286 1.14284151 2.49170286 0 0 Z " fill="#1B0E0B" transform="translate(302,804)"/>
<path d="M0 0 C0.99 0.33 1.98 0.66 3 1 C5.35527595 7.80413052 5.58609236 14.85464705 6 22 C3.06933864 19.06933864 2.75014124 15.48767051 1.875 11.5625 C1.69324219 10.78583984 1.51148438 10.00917969 1.32421875 9.20898438 C0.59695345 6.03471741 0 3.27228099 0 0 Z " fill="#ED9349" transform="translate(390,643)"/>
<path d="M0 0 C1.5078125 1.375 1.5078125 1.375 3 3 C2.83394098 5.65694438 2.21086001 6.76383679 0.4375 8.75 C-0.2740625 9.36875 -0.2740625 9.36875 -1 10 C-1 9.01 -1 8.02 -1 7 C-3.27521866 9.16687491 -5.15794162 11.45620509 -7 14 C-6.44010697 10.00987629 -5.24330232 7.4744948 -2.9375 4.1875 C-2.38964844 3.39730469 -1.84179688 2.60710938 -1.27734375 1.79296875 C-0.64505859 0.90544922 -0.64505859 0.90544922 0 0 Z " fill="#F7954B" transform="translate(416,573)"/>
<path d="M0 0 C4.46797338 1.39878802 8.63822079 3.13630772 12.875 5.125 C14.60363281 5.93324219 14.60363281 5.93324219 16.3671875 6.7578125 C17.23601563 7.16773438 18.10484375 7.57765625 19 8 C19 8.66 19 9.32 19 10 C13.92803921 9.50667859 10.33222545 7.72232235 6.125 5 C5.53203125 4.63132812 4.9390625 4.26265625 4.328125 3.8828125 C2.8623617 2.95742277 1.42780742 1.9829416 0 1 C0 0.67 0 0.34 0 0 Z " fill="#1B0C08" transform="translate(698,527)"/>
<path d="M0 0 C0.66 0.33 1.32 0.66 2 1 C1.67 1.66 1.34 2.32 1 3 C1.66 3.66 2.32 4.32 3 5 C1.68 5 0.36 5 -1 5 C-1 5.66 -1 6.32 -1 7 C-2.98 7 -4.96 7 -7 7 C-7 6.34 -7 5.68 -7 5 C-5.46875 3.7109375 -5.46875 3.7109375 -3.5 2.375 C-2.8503125 1.92898437 -2.200625 1.48296875 -1.53125 1.0234375 C-1.0259375 0.68570313 -0.520625 0.34796875 0 0 Z " fill="#F58F48" transform="translate(340,242)"/>
<path d="M0 0 C2.42130331 2.42130331 2.52840504 3.80111377 3.125 7.125 C3.29257812 8.03507812 3.46015625 8.94515625 3.6328125 9.8828125 C3.81457031 10.93082031 3.81457031 10.93082031 4 12 C3.01 11.67 2.02 11.34 1 11 C1 12.65 1 14.3 1 16 C0.67 16 0.34 16 0 16 C0 10.72 0 5.44 0 0 Z " fill="#321911" transform="translate(526,463)"/>
<path d="M0 0 C0.66 0.33 1.32 0.66 2 1 C-1.96 4.96 -5.92 8.92 -10 13 C-10.99 12.67 -11.98 12.34 -13 12 C-12.14535156 11.21753906 -11.29070312 10.43507813 -10.41015625 9.62890625 C-9.29425993 8.60678273 -8.17837511 7.58464667 -7.0625 6.5625 C-6.21655273 5.7880957 -6.21655273 5.7880957 -5.35351562 4.99804688 C-2.64001674 2.53775333 -2.64001674 2.53775333 0 0 Z " fill="#F79649" transform="translate(481,690)"/>
<path d="M0 0 C1.32 0 2.64 0 4 0 C4.33 0.99 4.66 1.98 5 3 C3.59554165 5.2636564 1.8032087 7.0208685 0 9 C-0.66 8.67 -1.32 8.34 -2 8 C-1.505 6.2984375 -1.505 6.2984375 -1 4.5625 C0.04504273 1.45623361 0.04504273 1.45623361 0 0 Z " fill="#EE8643" transform="translate(429,690)"/>
<path d="M0 0 C4.62 0 9.24 0 14 0 C12.68 1.32 11.36 2.64 10 4 C9.01 4 8.02 4 7 4 C7 3.01 7 2.02 7 1 C4.69 1 2.38 1 0 1 C0 0.67 0 0.34 0 0 Z " fill="#040406" transform="translate(465,398)"/>
<path d="M0 0 C0.99 0.33 1.98 0.66 3 1 C3.33 2.98 3.66 4.96 4 7 C2.68 7.33 1.36 7.66 0 8 C0 5.36 0 2.72 0 0 Z " fill="#0A0708" transform="translate(527,474)"/>
<path d="M0 0 C0.33 1.32 0.66 2.64 1 4 C0.34 4 -0.32 4 -1 4 C-0.67 6.31 -0.34 8.62 0 11 C-2.12508244 7.81237635 -2.5020163 5.73487777 -3 2 C-2.01 1.34 -1.02 0.68 0 0 Z " fill="#F98F47" transform="translate(390,628)"/>
<path d="M0 0 C0 0.99 0 1.98 0 3 C0.66 3.33 1.32 3.66 2 4 C1.34 5.32 0.68 6.64 0 8 C-0.33 7.34 -0.66 6.68 -1 6 C-1.99 5.67 -2.98 5.34 -4 5 C-2.68 3.35 -1.36 1.7 0 0 Z " fill="#FC984C" transform="translate(434,684)"/>
<path d="M0 0 C2.31 0.66 4.62 1.32 7 2 C7 2.99 7 3.98 7 5 C7.66 5.33 8.32 5.66 9 6 C4.58763974 6 3.21615077 3.9302707 0 1 C0 0.67 0 0.34 0 0 Z " fill="#24130C" transform="translate(314,633)"/>
<path d="M0 0 C0.66 0 1.32 0 2 0 C0.50079488 3.11373372 -1.08152136 6.12228205 -3 9 C-3.66 9 -4.32 9 -5 9 C-3.7580393 5.56072421 -2.44259716 2.74792181 0 0 Z " fill="#E98D46" transform="translate(729,197)"/>
<path d="M0 0 C0.83583327 2.37607949 1.1842383 3.54449627 0.22265625 5.921875 C-0.8515625 7.61458333 -1.92578125 9.30729167 -3 11 C-4 8 -4 8 -3.22265625 5.95703125 C-2.83980469 5.24933594 -2.45695312 4.54164063 -2.0625 3.8125 C-1.68222656 3.09707031 -1.30195313 2.38164063 -0.91015625 1.64453125 C-0.60980469 1.10183594 -0.30945313 0.55914063 0 0 Z " fill="#E9994E" transform="translate(423,701)"/>
<path d="M0 0 C1.65 0.33 3.3 0.66 5 1 C3 3 3 3 0 5 C-0.99 4.67 -1.98 4.34 -3 4 C-2.01 2.68 -1.02 1.36 0 0 Z " fill="#EF803F" transform="translate(439,679)"/>
<path d="M0 0 C2.97 0.495 2.97 0.495 6 1 C6.33 1.99 6.66 2.98 7 4 C4.69 3.67 2.38 3.34 0 3 C0 2.01 0 1.02 0 0 Z " fill="#EC8342" transform="translate(314,599)"/>
<path d="M0 0 C3.36720387 1.39332574 4.9859524 2.9789286 7 6 C4 6 4 6 1.8125 4.125 C0 2 0 2 0 0 Z " fill="#E18343" transform="translate(497,294)"/>
<path d="M0 0 C1.125 1.5625 1.125 1.5625 2 4 C1.125 7.75 1.125 7.75 0 11 C-0.33 11 -0.66 11 -1 11 C-1.125 3.375 -1.125 3.375 0 0 Z " fill="#1B0C0C" transform="translate(410,742)"/>
<path d="M0 0 C0.99 0.33 1.98 0.66 3 1 C3 1.66 3 2.32 3 3 C4.32 3.66 5.64 4.32 7 5 C6.34 5.66 5.68 6.32 5 7 C3.29115995 5.37660195 1.62553283 3.70680947 0 2 C0 1.34 0 0.68 0 0 Z " fill="#1F120E" transform="translate(701,417)"/>
</svg>
